{"context": " More than 1 year has passed since last update.\n\n\u306f\u3058\u3081\u306b\n\u3053\u3093\u306b\u3061\u306f\u3001ffmpeg\u754c\u306e\u9178\u8fa3\u6e6f\u9eba\u3067\u3059\u3002\n\nffprobe (avprobe) \u3067\u5404\u7a2e\u60c5\u5831\u3092\u8868\u793a\u3059\u308b\n\u3044\u304d\u306a\u308a\u30bf\u30a4\u30c8\u30eb\u3068\u9055\u3044\u307e\u3059\u304c\u3001ffmpeg (avprobe)\u3067\u306e\u52d5\u753b\u60c5\u5831\u306e\u8868\u793a\u306fffprobe(avprobe)\u3067\u884c\u3063\u3066\u308b\u306e\u3067\u3001\u3053\u3061\u3089\u3067\u8abf\u3079\u3066\u3044\u304d\u307e\u3059\u3002\uff08ffmpeg -i \u3068\u3057\u3066\u3082\u307b\u307c\u540c\u3058\u3060\u3051\u3069\u3001\u305d\u306e\u5834\u5408\u51fa\u529b\u30d5\u30a1\u30a4\u30eb\u540d\u6307\u5b9a\u3057\u308d\u3084\u3063\u3066\u3044\u3046\u30e1\u30c3\u30bb\u30fc\u30b8\u304c\u51fa\u308b\uff09\n% avprobe test.m4v\navprobe version 0.8.10, Copyright (c) 2007-2013 the Libav developers\n  built on Apr 22 2014 07:24:42 with gcc 4.7.2\nInput #0, mov,mp4,m4a,3gp,3g2,mj2, from 'test.m4v':\n  Metadata:\n    major_brand     : M4V\n    minor_version   : 1\n    compatible_brands: M4V M4A mp42isom\n    creation_time   : 2014-04-21 09:34:46\n    date            : 2014-04-21T18:30:19+0900\n  Duration: 00:03:00.50, start: 0.000000, bitrate: 5884 kb/s\n    Stream #0.0(und): Audio: aac, 48000 Hz, stereo, s16, 131 kb/s\n    Metadata:\n      creation_time   : 2014-04-21 09:34:46\n    Stream #0.1(und): Video: h264 (High), yuv420p, 1280x720 [PAR 1:1 DAR 16:9], \n5749 kb/s, 17 fps, 17 tbr, 30k tbn, 60k tbc\n    Metadata:\n      creation_time   : 2014-04-21 09:34:46\n\n\u3053\u3053\u3067\u8868\u793a\u3055\u308c\u305f\u5404\u7a2e\u60c5\u5831\u3092\u78ba\u8a8d\u3057\u3066\u307f\u308b\u3002\n\nFormat\n  Metadata:\n    major_brand     : M4V\n    minor_version   : 1\n    compatible_brands: M4V M4A mp42isom\n    creation_time   : 2014-04-21 09:34:46\n    date            : 2014-04-21T18:30:19+0900\n  Duration: 00:03:00.50, start: 0.000000, bitrate: 5884 kb/s\n\n\nDuration: \u52d5\u753b\u5168\u4f53\u306e\u9577\u3055\nstart: \u5bfe\u8c61\u30d5\u30a1\u30a4\u30eb\u304c\u52d5\u753b\u5168\u4f53\u306e\u3046\u3061\u306e\u3069\u306e\u6642\u9593\u304b\u3089\u59cb\u307e\u3063\u3066\u3044\u308b\u3082\u306e\u304b\u3092\u5360\u3081\u308b\u3002\u30bb\u30b0\u30e1\u30f3\u30c8\u30d5\u30a1\u30a4\u30eb\u306a\u3069\u3067\u5f79\u7acb\u3064\u3002\nbitrate: \u52d5\u753b\u306e\u30d3\u30c3\u30c8\u30ec\u30fc\u30c8\n\n\nStream\n    Stream #0.0(und): Audio: aac, 48000 Hz, stereo, s16, 131 kb/s\n    Metadata:\n      creation_time   : 2014-04-21 09:34:46\n    Stream #0.1(und): Video: h264 (High), yuv420p, 1280x720 [PAR 1:1 DAR 16:9], \n5749 kb/s, 17 fps, 17 tbr, 30k tbn, 60k tbc\n    Metadata:\n      creation_time   : 2014-04-21 09:34:46\n\n\u30b3\u30f3\u30c6\u30ca\u5185\u306e\u5404\u30b9\u30c8\u30ea\u30fc\u30e0\u306e\u60c5\u5831\u3002\n\nAudio: \u97f3\u58f0\u30b9\u30c8\u30ea\u30fc\u30e0\u306e\u60c5\u5831\u3002\u30b3\u30fc\u30c7\u30c3\u30af\u3001\u30b5\u30f3\u30d7\u30ea\u30f3\u30b0\u30ec\u30fc\u30c8\u3001\u30c1\u30e3\u30f3\u30cd\u30eb\u3001\u7b26\u53f7\u5316\u65b9\u6cd5\u3001\u30d3\u30c3\u30c8\u30ec\u30fc\u30c8\u304c\u305d\u308c\u305e\u308c\u66f8\u3044\u3066\u3042\u308b\u3002\nVideo: \u52d5\u753b\u30b9\u30c8\u30ea\u30fc\u30e0\u306e\u60c5\u5831\u3002\u30b3\u30fc\u30c7\u30c3\u30af\u3001\u8272\u7a7a\u9593\u306e\u60c5\u5831\u3001\u89e3\u50cf\u5ea6\u3001\u30d3\u30c3\u30c8\u30ec\u30fc\u30c8\u3001\u30d5\u30ec\u30fc\u30e0\u30ec\u30fc\u30c8\u3001\u5404\u7a2e\u6642\u9593\u57fa\u6e96\n\n\nYUV240p: \u8272\u7a7a\u9593\u3002\ntbr, tbn, tbc\u306f\u305d\u308c\u305e\u308c\u306e\u9006\u6570\u304c\u5b9f\u969b\u306e\u30bf\u30a4\u30e0\u30d9\u30fc\u30b9\u3068\u306a\u308b\u3002\n\n\ntbr: \u5b9f\u969b\u306b\u30d3\u30c7\u30aa\u3092\u8868\u793a\u3059\u308b\u969b\u306b\u53c2\u7167\u3059\u308b\u30ec\u30fc\u30c8\u3002\u30d3\u30c7\u30aa\u30b9\u30c8\u30ea\u30fc\u30e0\u304b\u3089\u306e\u985e\u63a8\u5024\u3002\u30a4\u30f3\u30bf\u30ec\u30fc\u30b9\u3060\u3068\u500d\u5024\u306b\u306a\u3063\u3066\u305f\u308a\u3059\u308b\u3002\ntbn: \u30b3\u30f3\u30c6\u30ca\u5074\u306b\u66f8\u304b\u308c\u305f\u30b9\u30c8\u30ea\u30fc\u30e0\u306e\u30bf\u30a4\u30e0\u30d9\u30fc\u30b9\u3002\ntbc: \u7279\u5b9a\u306e\u30b3\u30fc\u30c7\u30c3\u30af\u306b\u3060\u3051\u5b58\u5728\u3059\u308b\u30b3\u30fc\u30c7\u30c3\u30af\u5074\u306e\u30bf\u30a4\u30e0\u30d9\u30fc\u30b9\u3002\n\n\n\n\n\n\n\u53c2\u8003\n\n\n\u8272\u7a7a\u9593\n\nYUV\n\n\nMP4\nWhat does the output of ffmpeg mean? tbr tbn tbc etc?\n\n## \u306f\u3058\u3081\u306b\n\u3053\u3093\u306b\u3061\u306f\u3001ffmpeg\u754c\u306e\u9178\u8fa3\u6e6f\u9eba\u3067\u3059\u3002\n\n## ``ffprobe`` (``avprobe``) \u3067\u5404\u7a2e\u60c5\u5831\u3092\u8868\u793a\u3059\u308b\n\u3044\u304d\u306a\u308a\u30bf\u30a4\u30c8\u30eb\u3068\u9055\u3044\u307e\u3059\u304c\u3001``ffmpeg`` (``avprobe``)\u3067\u306e\u52d5\u753b\u60c5\u5831\u306e\u8868\u793a\u306f``ffprobe``(``avprobe``)\u3067\u884c\u3063\u3066\u308b\u306e\u3067\u3001\u3053\u3061\u3089\u3067\u8abf\u3079\u3066\u3044\u304d\u307e\u3059\u3002\uff08``ffmpeg -i`` \u3068\u3057\u3066\u3082\u307b\u307c\u540c\u3058\u3060\u3051\u3069\u3001\u305d\u306e\u5834\u5408\u51fa\u529b\u30d5\u30a1\u30a4\u30eb\u540d\u6307\u5b9a\u3057\u308d\u3084\u3063\u3066\u3044\u3046\u30e1\u30c3\u30bb\u30fc\u30b8\u304c\u51fa\u308b\uff09\n\n```bash\n% avprobe test.m4v\navprobe version 0.8.10, Copyright (c) 2007-2013 the Libav developers\n  built on Apr 22 2014 07:24:42 with gcc 4.7.2\nInput #0, mov,mp4,m4a,3gp,3g2,mj2, from 'test.m4v':\n  Metadata:\n    major_brand     : M4V\n    minor_version   : 1\n    compatible_brands: M4V M4A mp42isom\n    creation_time   : 2014-04-21 09:34:46\n    date            : 2014-04-21T18:30:19+0900\n  Duration: 00:03:00.50, start: 0.000000, bitrate: 5884 kb/s\n    Stream #0.0(und): Audio: aac, 48000 Hz, stereo, s16, 131 kb/s\n    Metadata:\n      creation_time   : 2014-04-21 09:34:46\n    Stream #0.1(und): Video: h264 (High), yuv420p, 1280x720 [PAR 1:1 DAR 16:9], \n5749 kb/s, 17 fps, 17 tbr, 30k tbn, 60k tbc\n    Metadata:\n      creation_time   : 2014-04-21 09:34:46\n```\n\u3053\u3053\u3067\u8868\u793a\u3055\u308c\u305f\u5404\u7a2e\u60c5\u5831\u3092\u78ba\u8a8d\u3057\u3066\u307f\u308b\u3002\n\n### Format\n\n```\n  Metadata:\n    major_brand     : M4V\n    minor_version   : 1\n    compatible_brands: M4V M4A mp42isom\n    creation_time   : 2014-04-21 09:34:46\n    date            : 2014-04-21T18:30:19+0900\n  Duration: 00:03:00.50, start: 0.000000, bitrate: 5884 kb/s\n```\n\n* Duration: \u52d5\u753b\u5168\u4f53\u306e\u9577\u3055\n* start: \u5bfe\u8c61\u30d5\u30a1\u30a4\u30eb\u304c\u52d5\u753b\u5168\u4f53\u306e\u3046\u3061\u306e\u3069\u306e\u6642\u9593\u304b\u3089\u59cb\u307e\u3063\u3066\u3044\u308b\u3082\u306e\u304b\u3092\u5360\u3081\u308b\u3002\u30bb\u30b0\u30e1\u30f3\u30c8\u30d5\u30a1\u30a4\u30eb\u306a\u3069\u3067\u5f79\u7acb\u3064\u3002\n* bitrate: \u52d5\u753b\u306e\u30d3\u30c3\u30c8\u30ec\u30fc\u30c8\n\n### Stream\n```\n    Stream #0.0(und): Audio: aac, 48000 Hz, stereo, s16, 131 kb/s\n    Metadata:\n      creation_time   : 2014-04-21 09:34:46\n    Stream #0.1(und): Video: h264 (High), yuv420p, 1280x720 [PAR 1:1 DAR 16:9], \n5749 kb/s, 17 fps, 17 tbr, 30k tbn, 60k tbc\n    Metadata:\n      creation_time   : 2014-04-21 09:34:46\n```\n\n\u30b3\u30f3\u30c6\u30ca\u5185\u306e\u5404\u30b9\u30c8\u30ea\u30fc\u30e0\u306e\u60c5\u5831\u3002\n\n* Audio: \u97f3\u58f0\u30b9\u30c8\u30ea\u30fc\u30e0\u306e\u60c5\u5831\u3002\u30b3\u30fc\u30c7\u30c3\u30af\u3001\u30b5\u30f3\u30d7\u30ea\u30f3\u30b0\u30ec\u30fc\u30c8\u3001\u30c1\u30e3\u30f3\u30cd\u30eb\u3001\u7b26\u53f7\u5316\u65b9\u6cd5\u3001\u30d3\u30c3\u30c8\u30ec\u30fc\u30c8\u304c\u305d\u308c\u305e\u308c\u66f8\u3044\u3066\u3042\u308b\u3002\n* Video: \u52d5\u753b\u30b9\u30c8\u30ea\u30fc\u30e0\u306e\u60c5\u5831\u3002\u30b3\u30fc\u30c7\u30c3\u30af\u3001\u8272\u7a7a\u9593\u306e\u60c5\u5831\u3001\u89e3\u50cf\u5ea6\u3001\u30d3\u30c3\u30c8\u30ec\u30fc\u30c8\u3001\u30d5\u30ec\u30fc\u30e0\u30ec\u30fc\u30c8\u3001\u5404\u7a2e\u6642\u9593\u57fa\u6e96\n    * YUV240p: \u8272\u7a7a\u9593\u3002\n    * tbr, tbn, tbc\u306f\u305d\u308c\u305e\u308c\u306e\u9006\u6570\u304c\u5b9f\u969b\u306e\u30bf\u30a4\u30e0\u30d9\u30fc\u30b9\u3068\u306a\u308b\u3002\n        * tbr: \u5b9f\u969b\u306b\u30d3\u30c7\u30aa\u3092\u8868\u793a\u3059\u308b\u969b\u306b\u53c2\u7167\u3059\u308b\u30ec\u30fc\u30c8\u3002\u30d3\u30c7\u30aa\u30b9\u30c8\u30ea\u30fc\u30e0\u304b\u3089\u306e\u985e\u63a8\u5024\u3002\u30a4\u30f3\u30bf\u30ec\u30fc\u30b9\u3060\u3068\u500d\u5024\u306b\u306a\u3063\u3066\u305f\u308a\u3059\u308b\u3002\n        * tbn: \u30b3\u30f3\u30c6\u30ca\u5074\u306b\u66f8\u304b\u308c\u305f\u30b9\u30c8\u30ea\u30fc\u30e0\u306e\u30bf\u30a4\u30e0\u30d9\u30fc\u30b9\u3002\n        * tbc: \u7279\u5b9a\u306e\u30b3\u30fc\u30c7\u30c3\u30af\u306b\u3060\u3051\u5b58\u5728\u3059\u308b\u30b3\u30fc\u30c7\u30c3\u30af\u5074\u306e\u30bf\u30a4\u30e0\u30d9\u30fc\u30b9\u3002\n\n## \u53c2\u8003\n* [\u8272\u7a7a\u9593](http://ja.wikipedia.org/wiki/%E8%89%B2%E7%A9%BA%E9%96%93)\n    * [YUV](http://ja.wikipedia.org/wiki/YUV)\n* [MP4](http://ja.wikipedia.org/wiki/MP4)\n* [What does the output of ffmpeg mean? tbr tbn tbc etc?](http://ffmpeg-users.933282.n4.nabble.com/What-does-the-output-of-ffmpeg-mean-tbr-tbn-tbc-etc-td941538.html)", "tags": ["ffmpeg0.8.10"]}